<?xml version="1.0" standalone="no"?>
<!DOCTYPE svg PUBLIC "-//W3C//DTD SVG 20010904//EN"
 "http://www.w3.org/TR/2001/REC-SVG-20010904/DTD/svg10.dtd">
<svg version="1.0" xmlns="http://www.w3.org/2000/svg"
 width="1257.000000pt" height="1287.000000pt" viewBox="0 0 1257.000000 1287.000000"
 preserveAspectRatio="xMidYMid meet">

<g transform="translate(0.000000,1287.000000) scale(0.100000,-0.100000)"
fill="#000000" stroke="none">
<path d="M6860 12853 c-111 -11 -263 -39 -395 -73 -800 -203 -1587 -821 -1936
-1520 -84 -169 -114 -276 -204 -725 -211 -1058 -388 -1654 -520 -1748 -22 -16
-168 -104 -325 -194 -1082 -628 -2107 -1332 -2865 -1967 -171 -144 -415 -358
-517 -455 l-88 -83 0 -3044 0 -3044 3884 0 3884 0 123 118 c370 354 688 804
983 1392 532 1062 866 2345 968 3715 16 223 16 934 0 1130 -72 859 -258 1452
-579 1848 -67 81 -142 151 -243 226 -157 115 -279 274 -349 455 -62 161 -76
237 -75 416 1 138 4 165 28 245 36 122 149 349 231 465 187 264 428 487 760
705 198 130 336 206 775 425 929 465 1639 867 1963 1113 114 86 222 198 175
182 -72 -25 -1231 -322 -1773 -454 -731 -178 -1893 -446 -1902 -438 -1 2 97
36 220 75 987 317 1999 566 3150 777 l338 61 -49 46 c-94 88 -261 148 -517
184 -182 26 -779 27 -1035 1 -623 -63 -1131 -157 -1776 -328 l-190 -50 -170
76 c-558 254 -1039 407 -1447 460 -107 14 -424 19 -527 8z"/>
</g>
</svg>
